<?xml version="1.0" encoding="UTF-8" ?>
<!DOCTYPE svg PUBLIC "-//W3C//DTD SVG 1.1//EN" "http://www.w3.org/Graphics/SVG/1.1/DTD/svg11.dtd">
<svg width="419pt" height="284pt" viewBox="0 0 419 284" version="1.1" xmlns="http://www.w3.org/2000/svg">
<g id="#fefefeff">
</g>
<g id="#ebba34ff">
<path fill="#ebba34" opacity="1.00" d=" M 206.60 11.37 C 206.77 11.35 207.13 11.32 207.30 11.30 C 209.97 19.70 213.06 28.30 218.93 35.06 C 221.65 38.26 225.75 40.43 230.04 39.94 C 238.49 39.20 245.78 34.23 252.41 29.32 C 251.62 41.26 251.35 54.07 257.05 64.95 C 263.29 75.37 275.86 78.96 286.99 81.44 C 282.04 91.87 278.68 103.33 278.88 114.95 C 279.09 128.92 287.24 142.16 299.06 149.42 C 292.12 149.66 285.18 149.46 278.24 149.52 C 276.34 129.84 271.44 110.28 262.42 92.62 C 254.56 77.42 243.32 63.06 227.65 55.40 C 215.53 49.33 200.77 48.93 188.39 54.48 C 173.32 61.04 162.12 74.04 154.09 88.04 C 143.39 106.95 137.73 128.41 135.77 149.96 C 129.58 150.19 123.37 150.06 117.17 150.07 C 125.60 145.76 131.40 137.40 132.96 128.11 C 135.71 112.32 132.74 95.91 126.60 81.24 C 133.30 82.41 140.72 82.49 146.65 78.70 C 151.34 75.85 153.78 70.62 155.37 65.58 C 158.74 54.48 159.27 42.76 159.02 31.24 C 165.31 36.05 171.88 41.24 179.91 42.59 C 183.66 43.33 187.50 41.78 190.02 38.99 C 197.49 31.12 202.23 21.18 206.60 11.37 Z" />
<path fill="#ebba34" opacity="1.00" d=" M 197.49 86.85 C 203.83 86.84 210.16 86.85 216.50 86.85 C 216.57 100.33 216.36 113.81 216.60 127.28 C 228.68 127.19 240.76 127.20 252.84 127.28 C 252.91 136.28 252.82 145.29 252.88 154.30 C 240.75 154.42 228.62 154.29 216.49 154.36 C 216.51 196.38 216.49 238.40 216.51 280.42 C 210.17 280.43 203.83 280.42 197.49 280.43 C 197.47 238.41 197.48 196.38 197.49 154.36 C 185.37 154.30 173.26 154.41 161.14 154.30 C 161.18 145.30 161.12 136.29 161.18 127.28 C 173.25 127.18 185.33 127.22 197.40 127.27 C 197.59 113.80 197.42 100.32 197.49 86.85 Z" />
</g>
<g id="#4c4c4eff">
<path fill="#ffffff" opacity="1.00" d=" M 80.26 177.72 C 82.25 177.70 84.24 177.70 86.23 177.68 C 92.75 192.52 98.80 207.58 105.53 222.32 C 105.64 207.44 105.56 192.57 105.56 177.70 C 107.67 177.70 109.79 177.71 111.90 177.72 C 111.84 199.58 111.85 221.45 111.89 243.32 C 110.15 243.36 108.40 243.39 106.66 243.45 C 99.77 228.17 93.60 212.56 86.65 197.31 C 86.52 212.68 86.69 228.05 86.58 243.42 C 84.45 243.37 82.33 243.33 80.21 243.28 C 80.38 221.43 80.28 199.57 80.26 177.72 Z" />
<path fill="#ffffff" opacity="1.00" d=" M 228.58 177.70 C 230.75 177.70 232.91 177.71 235.08 177.73 C 235.12 186.76 234.76 195.80 234.96 204.84 C 240.72 204.89 246.49 204.86 252.26 204.87 C 252.23 195.82 252.31 186.77 252.21 177.73 C 254.38 177.71 256.55 177.71 258.73 177.72 C 258.68 199.59 258.64 221.46 258.75 243.32 C 256.57 243.34 254.40 243.35 252.23 243.35 C 252.30 234.13 252.24 224.90 252.26 215.67 C 246.47 215.68 240.69 215.66 234.90 215.69 C 235.38 224.90 234.79 234.12 235.10 243.33 C 232.93 243.35 230.76 243.36 228.59 243.37 C 228.60 221.48 228.61 199.59 228.58 177.70 Z" />
<path fill="#ffffff" opacity="1.00" d=" M 123.35 198.35 C 125.32 195.04 128.92 192.20 132.99 192.78 C 137.10 193.31 139.97 196.82 141.58 200.39 C 144.70 207.36 145.15 215.16 144.91 222.69 C 138.16 222.65 131.42 222.67 124.67 222.67 C 125.48 227.14 126.28 232.97 131.10 234.86 C 135.21 236.29 138.23 232.22 140.12 229.19 C 141.29 231.28 142.91 233.17 143.66 235.47 C 141.91 239.22 139.18 243.08 134.99 244.23 C 131.14 245.32 127.03 243.48 124.61 240.45 C 120.42 235.28 118.98 228.46 118.56 221.97 C 118.18 213.91 119.06 205.37 123.35 198.35 M 128.60 203.63 C 125.76 206.74 125.27 211.13 124.66 215.11 C 129.36 215.12 134.06 215.11 138.76 215.12 C 138.28 211.02 137.89 206.32 134.70 203.31 C 133.05 201.60 130.10 201.87 128.60 203.63 Z" />
<path fill="#ffffff" opacity="1.00" d=" M 275.36 193.42 C 279.03 191.79 283.39 193.14 286.07 195.97 C 290.48 200.50 292.34 206.89 293.12 213.03 C 293.96 221.16 293.14 229.75 289.18 237.02 C 287.06 240.76 283.56 244.43 278.98 244.53 C 274.40 244.64 270.66 241.21 268.58 237.42 C 263.91 229.11 263.43 219.04 265.03 209.83 C 266.37 203.48 269.10 196.35 275.36 193.42 M 276.40 203.38 C 273.32 205.09 271.96 208.66 271.22 211.92 C 270.00 217.94 270.22 224.53 273.01 230.10 C 274.29 232.65 276.89 235.13 279.98 234.46 C 283.65 233.29 285.38 229.40 286.27 225.95 C 287.68 219.57 287.48 212.49 284.28 206.67 C 282.84 204.01 279.39 201.54 276.40 203.38 Z" />
<path fill="#ffffff" opacity="1.00" d=" M 304.63 201.42 C 306.42 197.85 308.50 193.41 312.93 192.76 C 317.32 192.25 320.72 195.95 322.63 199.47 C 326.33 206.66 326.85 215.02 326.40 222.97 C 325.89 229.15 324.62 235.67 320.66 240.65 C 318.48 243.43 314.61 245.46 311.12 243.92 C 307.77 242.56 306.22 239.08 304.53 236.15 C 304.60 243.57 304.55 251.00 304.58 258.43 C 302.44 258.42 300.30 258.41 298.16 258.40 C 298.23 236.84 298.20 215.28 298.18 193.73 C 300.31 193.72 302.43 193.71 304.57 193.71 C 304.54 196.28 304.54 198.85 304.63 201.42 M 310.24 203.27 C 306.83 205.23 305.56 209.38 304.85 213.00 C 303.93 218.75 304.18 224.96 306.83 230.25 C 308.10 232.73 310.84 235.37 313.85 234.18 C 317.23 232.75 318.61 228.95 319.39 225.64 C 320.61 219.31 320.55 212.33 317.49 206.50 C 316.18 204.03 313.07 201.44 310.24 203.27 Z" />
<path fill="#ffffff" opacity="1.00" d=" M 335.96 198.04 C 337.91 195.02 341.22 192.32 345.03 192.75 C 348.91 193.03 351.80 196.18 353.49 199.44 C 357.10 206.56 357.44 214.75 357.42 222.58 C 350.65 222.79 343.86 222.59 337.09 222.69 C 337.82 227.31 338.85 233.48 344.04 235.03 C 348.02 235.88 350.56 232.02 352.64 229.30 C 353.80 231.30 355.02 233.26 356.27 235.21 C 354.23 239.07 351.56 243.33 346.97 244.32 C 342.58 245.39 338.29 242.65 335.96 239.07 C 331.84 232.90 330.85 225.22 330.82 217.95 C 331.06 211.08 332.14 203.91 335.96 198.04 M 341.39 203.30 C 338.19 206.30 337.65 210.95 337.11 215.07 C 341.75 215.15 346.39 215.11 351.04 215.12 C 350.75 211.09 350.26 206.67 347.42 203.56 C 345.92 201.85 343.00 201.63 341.39 203.30 Z" />
<path fill="#ffffff" opacity="1.00" d=" M 147.18 193.70 C 149.35 193.71 151.52 193.72 153.69 193.73 C 155.48 204.89 157.33 216.04 159.06 227.21 C 161.35 216.09 163.14 204.86 165.10 193.67 C 166.92 193.64 168.75 193.62 170.58 193.61 C 172.68 204.80 174.38 216.06 176.77 227.18 C 178.49 216.01 180.38 204.87 182.23 193.71 C 184.35 193.71 186.47 193.71 188.59 193.71 C 185.53 210.38 182.61 227.08 179.57 243.76 C 177.69 243.76 175.82 243.76 173.95 243.77 C 171.77 232.79 170.22 221.68 167.79 210.76 C 165.60 221.73 163.81 232.78 161.69 243.77 C 159.81 243.75 157.93 243.74 156.05 243.72 C 153.11 227.04 150.12 210.38 147.18 193.70 Z" />
</g>
</svg>
