<?xml version="1.0" encoding="UTF-8" standalone="no"?>
<svg
   xmlns:dc="http://purl.org/dc/elements/1.1/"
   xmlns:cc="http://creativecommons.org/ns#"
   xmlns:rdf="http://www.w3.org/1999/02/22-rdf-syntax-ns#"
   xmlns:svg="http://www.w3.org/2000/svg"
   xmlns="http://www.w3.org/2000/svg"
   xmlns:sodipodi="http://sodipodi.sourceforge.net/DTD/sodipodi-0.dtd"
   xmlns:inkscape="http://www.inkscape.org/namespaces/inkscape"
   width="479.41867"
   height="416.99579"
   version="1.1"
   viewBox="0 0 359.564 312.74685"
   id="svg42"
   sodipodi:docname="newHopeLogo.svg"
   inkscape:version="0.92.4 (5da689c313, 2019-01-14)">
  <defs
     id="defs46" />
  <sodipodi:namedview
     pagecolor="#ffffff"
     bordercolor="#666666"
     borderopacity="1"
     objecttolerance="10"
     gridtolerance="10"
     guidetolerance="10"
     inkscape:pageopacity="0"
     inkscape:pageshadow="2"
     inkscape:window-width="2560"
     inkscape:window-height="1377"
     id="namedview44"
     showgrid="false"
     units="px"
     width="351px"
     inkscape:zoom="3.1954225"
     inkscape:cx="263.25281"
     inkscape:cy="324.60636"
     inkscape:window-x="1912"
     inkscape:window-y="-8"
     inkscape:window-maximized="1"
     inkscape:current-layer="svg42" />
  <metadata
     id="metadata10">
    <rdf:RDF>
      <cc:Work
         rdf:about="">
        <dc:format>image/svg+xml</dc:format>
        <dc:type
           rdf:resource="http://purl.org/dc/dcmitype/StillImage" />
        <dc:title></dc:title>
      </cc:Work>
    </rdf:RDF>
  </metadata>
  <g
     id="g16"
     style="fill:#ebba34"
     transform="translate(-41.052132,-11.3)">
    <path
       d="m 206.6,11.37 c 0.17,-0.02 0.53,-0.05 0.7,-0.07 2.67,8.4 5.76,17 11.63,23.76 2.72,3.2 6.82,5.37 11.11,4.88 8.45,-0.74 15.74,-5.71 22.37,-10.62 -0.79,11.94 -1.06,24.75 4.64,35.63 6.24,10.42 18.81,14.01 29.94,16.49 -4.95,10.43 -8.31,21.89 -8.11,33.51 0.21,13.97 8.36,27.21 20.18,34.47 -6.94,0.24 -13.88,0.04 -20.82,0.1 -1.9,-19.68 -6.8,-39.24 -15.82,-56.9 -7.86,-15.2 -19.1,-29.56 -34.77,-37.22 -12.12,-6.07 -26.88,-6.47 -39.26,-0.92 -15.07,6.56 -26.27,19.56 -34.3,33.56 -10.7,18.91 -16.36,40.37 -18.32,61.92 -6.19,0.23 -12.4,0.1 -18.6,0.11 8.43,-4.31 14.23,-12.67 15.79,-21.96 2.75,-15.79 -0.22,-32.2 -6.36,-46.87 6.7,1.17 14.12,1.25 20.05,-2.54 4.69,-2.85 7.13,-8.08 8.72,-13.12 3.37,-11.1 3.9,-22.82 3.65,-34.34 6.29,4.81 12.86,10 20.89,11.35 3.75,0.74 7.59,-0.81 10.11,-3.6 7.47,-7.87 12.21,-17.81 16.58,-27.62 z"
       id="path12"
       inkscape:connector-curvature="0" />
    <path
       d="m 197.49,86.85 c 6.34,-0.01 12.67,0 19.01,0 0.07,13.48 -0.14,26.96 0.1,40.43 12.08,-0.09 24.16,-0.08 36.24,0 0.07,9 -0.02,18.01 0.04,27.02 -12.13,0.12 -24.26,-0.01 -36.39,0.06 0.02,42.02 0,84.04 0.02,126.06 -6.34,0.01 -12.68,0 -19.02,0.01 -0.02,-42.02 -0.01,-84.05 0,-126.07 -12.12,-0.06 -24.23,0.05 -36.35,-0.06 0.04,-9 -0.02,-18.01 0.04,-27.02 12.07,-0.1 24.15,-0.06 36.22,-0.01 0.19,-13.47 0.02,-26.95 0.09,-40.42 z"
       id="path14"
       inkscape:connector-curvature="0" />
  </g>
  <flowRoot
     font-size="30px"
     letter-spacing="0px"
     word-spacing="0px"
     style="font-size:30px;line-height:1.25;font-family:sans-serif;letter-spacing:0px;word-spacing:0px;fill:#000000;stroke-width:0.75"
     xml:space="preserve"
     id="flowRoot24"
     transform="translate(-41.052132,-11.3)">
      <flowRegion
   id="flowRegion20">
         <rect
   x="88.005997"
   y="166.57001"
   width="272.79001"
   height="80.779999"
   id="rect18"
   style="stroke-width:0.5625" />
      </flowRegion>
      <flowPara
   id="flowPara22" />
   </flowRoot>  <g
     aria-label="NEW  HOPE"
     id="g40"
     style="fill:#ffffff;stroke-width:0.75"
     transform="translate(-40.348,-11.5347)">
    <path
       d="m 40.348,163.27 h 8.5 l 20.688,39.031 V 163.27 h 6.125 v 46.656 h -8.5 L 46.473,170.895 v 39.031 h -6.125 z"
       id="path26"
       inkscape:connector-curvature="0"
       style="fill:#ffffff" />
    <path
       d="m 88.223,163.27 h 29.5 v 5.3125 H 94.535 v 13.812 h 22.219 v 5.3125 H 94.535 v 16.906 h 23.75 v 5.3125 H 88.223 Z"
       id="path28"
       inkscape:connector-curvature="0"
       style="fill:#ffffff" />
    <path
       d="m 124.57,163.27 h 6.375 l 9.8125,39.438 9.7812,-39.438 h 7.0938 l 9.8125,39.438 9.7812,-39.438 h 6.4062 l -11.719,46.656 h -7.9375 l -9.8438,-40.5 -9.9375,40.5 h -7.9375 z"
       id="path30"
       inkscape:connector-curvature="0"
       style="fill:#ffffff" />
    <path
       d="m 232.72,163.27 h 6.3125 v 19.125 h 22.938 V 163.27 h 6.3125 v 46.656 h -6.3125 v -22.219 h -22.938 v 22.219 H 232.72 Z"
       id="path32"
       inkscape:connector-curvature="0"
       style="fill:#ffffff" />
    <path
       d="m 299.79,167.56 q -6.875,0 -10.938,5.125 -4.0312,5.125 -4.0312,13.969 0,8.8125 4.0312,13.938 4.0625,5.125 10.938,5.125 6.8755,0 10.875,-5.125 4.0312,-5.125 4.0312,-13.938 0,-8.8438 -4.0312,-13.969 -4,-5.125 -10.875,-5.125 z m 0,-5.125 q 9.8125,0 15.688,6.5938 5.875,6.5625 5.875,17.625 0,11.031 -5.875,17.625 -5.875,6.5625 -15.688,6.5625 -9.8438,0 -15.75,-6.5625 -5.875,-6.5625 -5.875,-17.625 0,-11.0625 5.875,-17.625 5.9062,-6.5938 15.75,-6.5938 z"
       id="path34"
       inkscape:connector-curvature="0"
       style="fill:#ffffff" />
    <path
       d="m 337.54,168.46 v 17.531 h 7.9375 q 4.4062,0 6.8125,-2.2812 2.4063,-2.2812 2.4062,-6.5 0,-4.1875 -2.4062,-6.4688 -2.4062,-2.2813 -6.8125,-2.2812 z m -6.3125,-5.1875 h 14.25 q 7.8438,0 11.844,3.5625 4.0312,3.5312 4.0312,10.375 0,6.9062 -4.0312,10.438 -4,3.5312 -11.844,3.5312 H 337.54 v 18.75 h -6.3125 z"
       id="path36"
       inkscape:connector-curvature="0"
       style="fill:#ffffff" />
    <path
       d="m 369.85,163.27 h 29.5 v 5.3125 h -23.188 v 13.812 h 22.219 v 5.3125 h -22.219 v 16.906 h 23.75 v 5.3125 H 369.85 Z"
       id="path38"
       inkscape:connector-curvature="0"
       style="fill:#ffffff" />
  </g>
  <rect
     style="fill:#ebba34;fill-opacity:1;stroke-width:0.79691947"
     id="rect48-6"
     width="19.480991"
     height="16.429752"
     x="156.04587"
     y="295.44104" />
  <text
     xml:space="preserve"
     style="font-style:normal;font-weight:normal;font-size:30px;line-height:1.25;font-family:sans-serif;letter-spacing:0px;word-spacing:0px;fill:#000000;fill-opacity:1;stroke:none;stroke-width:0.75"
     x="101.16033"
     y="288.24847"
     id="text82"><tspan
       sodipodi:role="line"
       id="tspan80"
       x="101.16033"
       y="314.79144"
       style="stroke-width:0.75" /></text>
  <g
     aria-label="Loving GOD"
     style="font-style:normal;font-weight:normal;font-size:30px;line-height:1.25;font-family:sans-serif;letter-spacing:0px;word-spacing:0px;fill:#ffffff;fill-opacity:1;stroke:none;stroke-width:0.75"
     id="text86"
     transform="translate(-0.704132,-0.432937)">
    <path
       d="m 58.5,275.98676 h 1.578125 v 10.33593 h 5.679687 v 1.32813 H 58.5 Z"
       style="font-size:16px;fill:#ffffff;stroke-width:0.75"
       id="path180"
       inkscape:connector-curvature="0" />
    <path
       d="m 70.453125,279.90863 q -1.15625,0 -1.828125,0.90625 -0.671875,0.89844 -0.671875,2.46875 0,1.57031 0.664062,2.47656 0.671875,0.89844 1.835938,0.89844 1.148437,0 1.820312,-0.90625 0.671875,-0.90625 0.671875,-2.46875 0,-1.55469 -0.671875,-2.46094 -0.671875,-0.91406 -1.820312,-0.91406 z m 0,-1.21875 q 1.875,0 2.945312,1.21875 1.070313,1.21875 1.070313,3.375 0,2.14844 -1.070313,3.375 -1.070312,1.21875 -2.945312,1.21875 -1.882813,0 -2.953125,-1.21875 -1.0625,-1.22656 -1.0625,-3.375 0,-2.15625 1.0625,-3.375 1.070312,-1.21875 2.953125,-1.21875 z"
       style="font-size:16px;fill:#ffffff;stroke-width:0.75"
       id="path182"
       inkscape:connector-curvature="0" />
    <path
       d="m 75.8125,278.90082 h 1.523437 l 2.734375,7.34375 2.734375,-7.34375 h 1.523438 l -3.28125,8.75 H 79.09375 Z"
       style="font-size:16px;fill:#ffffff;stroke-width:0.75"
       id="path184"
       inkscape:connector-curvature="0" />
    <path
       d="M 86.3125,278.90082 H 87.75 v 8.75 h -1.4375 z m 0,-3.40625 H 87.75 v 1.82031 h -1.4375 z"
       style="font-size:16px;fill:#ffffff;stroke-width:0.75"
       id="path186"
       inkscape:connector-curvature="0" />
    <path
       d="m 98.023437,282.36957 v 5.28125 h -1.4375 v -5.23438 q 0,-1.24218 -0.484375,-1.85937 -0.484375,-0.61719 -1.453125,-0.61719 -1.164062,0 -1.835937,0.74219 -0.671875,0.74219 -0.671875,2.02344 v 4.94531 h -1.445313 v -8.75 h 1.445313 v 1.35937 q 0.515625,-0.78906 1.210937,-1.17968 0.703125,-0.39063 1.617188,-0.39063 1.507812,0 2.28125,0.9375 0.773437,0.92969 0.773437,2.74219 z"
       style="font-size:16px;fill:#ffffff;stroke-width:0.75"
       id="path188"
       inkscape:connector-curvature="0" />
    <path
       d="m 106.66406,283.17426 q 0,-1.5625 -0.64843,-2.42188 -0.64063,-0.85937 -1.80469,-0.85937 -1.15625,0 -1.80469,0.85937 -0.64062,0.85938 -0.64062,2.42188 0,1.55468 0.64062,2.41406 0.64844,0.85937 1.80469,0.85937 1.16406,0 1.80469,-0.85937 0.64843,-0.85938 0.64843,-2.41406 z m 1.4375,3.39062 q 0,2.23438 -0.99218,3.32031 -0.99219,1.09375 -3.03907,1.09375 -0.75781,0 -1.42968,-0.11718 -0.67188,-0.10938 -1.30469,-0.34375 v -1.39844 q 0.63281,0.34375 1.25,0.50781 0.61719,0.16406 1.25781,0.16406 1.41406,0 2.11719,-0.74218 0.70312,-0.73438 0.70312,-2.22657 v -0.71093 q -0.44531,0.77343 -1.14062,1.15625 -0.69531,0.38281 -1.66406,0.38281 -1.60938,0 -2.59375,-1.22656 -0.98438,-1.22657 -0.98438,-3.25 0,-2.03125 0.98438,-3.25782 0.98437,-1.22656 2.59375,-1.22656 0.96875,0 1.66406,0.38281 0.69531,0.38282 1.14062,1.15625 v -1.32812 h 1.4375 z"
       style="font-size:16px;fill:#ffffff;stroke-width:0.75"
       id="path190"
       inkscape:connector-curvature="0" />
    <path
       d="m 124.17188,285.98676 v -3.13282 h -2.57813 v -1.29687 h 4.14063 v 5.00781 q -0.91407,0.64844 -2.01563,0.98438 -1.10156,0.32812 -2.35156,0.32812 -2.73438,0 -4.28125,-1.59375 -1.53906,-1.60156 -1.53906,-4.45312 0,-2.85938 1.53906,-4.45313 1.54687,-1.60156 4.28125,-1.60156 1.14062,0 2.16406,0.28125 1.03125,0.28125 1.89844,0.82812 v 1.67969 q -0.875,-0.74219 -1.85938,-1.11719 -0.98437,-0.375 -2.07031,-0.375 -2.14062,0 -3.21875,1.19532 -1.07031,1.19531 -1.07031,3.5625 0,2.35937 1.07031,3.55468 1.07813,1.19532 3.21875,1.19532 0.83594,0 1.49219,-0.14063 0.65625,-0.14844 1.17969,-0.45312 z"
       style="font-size:16px;fill:#ffffff;stroke-width:0.75"
       id="path192"
       inkscape:connector-curvature="0" />
    <path
       d="m 133.35937,277.05707 q -1.71875,0 -2.73437,1.28125 -1.00781,1.28125 -1.00781,3.49219 0,2.20312 1.00781,3.48437 1.01562,1.28125 2.73437,1.28125 1.71875,0 2.71875,-1.28125 1.00782,-1.28125 1.00782,-3.48437 0,-2.21094 -1.00782,-3.49219 -1,-1.28125 -2.71875,-1.28125 z m 0,-1.28125 q 2.45313,0 3.92188,1.64844 1.46875,1.64062 1.46875,4.40625 0,2.75781 -1.46875,4.40625 -1.46875,1.64062 -3.92188,1.64062 -2.46093,0 -3.9375,-1.64062 -1.46874,-1.64063 -1.46874,-4.40625 0,-2.76563 1.46874,-4.40625 1.47657,-1.64844 3.9375,-1.64844 z"
       style="font-size:16px;fill:#ffffff;stroke-width:0.75"
       id="path194"
       inkscape:connector-curvature="0" />
    <path
       d="m 142.79687,277.28363 v 9.07031 h 1.90625 q 2.41407,0 3.53125,-1.09375 1.125,-1.09375 1.125,-3.45312 0,-2.34375 -1.125,-3.42969 -1.11718,-1.09375 -3.53125,-1.09375 z m -1.57812,-1.29687 h 3.24219 q 3.39062,0 4.97656,1.41406 1.58594,1.40625 1.58594,4.40625 0,3.01562 -1.59375,4.42969 -1.59375,1.41406 -4.96875,1.41406 h -3.24219 z"
       style="font-size:16px;fill:#ffffff;stroke-width:0.75"
       id="path196"
       inkscape:connector-curvature="0" />
  </g>
  <g
     aria-label="Loving PEOPLE"
     style="font-style:normal;font-weight:normal;font-size:30px;line-height:1.25;font-family:sans-serif;letter-spacing:0px;word-spacing:0px;fill:#ffffff;fill-opacity:1;stroke:none;stroke-width:0.75"
     id="text86-0"
     transform="translate(-0.704132,-0.432937)">
    <path
       d="m 34.5,298.18759 h 1.578125 v 10.33594 h 5.679687 v 1.32812 H 34.5 Z"
       style="font-size:15.99999905px;fill:#ffffff;stroke-width:0.75"
       id="path155"
       inkscape:connector-curvature="0" />
    <path
       d="m 46.453124,302.10947 q -1.15625,0 -1.828125,0.90625 -0.671875,0.89843 -0.671875,2.46875 0,1.57031 0.664062,2.47656 0.671875,0.89844 1.835938,0.89844 1.148437,0 1.820312,-0.90625 0.671875,-0.90625 0.671875,-2.46875 0,-1.55469 -0.671875,-2.46094 -0.671875,-0.91406 -1.820312,-0.91406 z m 0,-1.21875 q 1.875,0 2.945312,1.21875 1.070313,1.21875 1.070313,3.375 0,2.14843 -1.070313,3.375 -1.070312,1.21875 -2.945312,1.21875 -1.882813,0 -2.953125,-1.21875 -1.0625,-1.22657 -1.0625,-3.375 0,-2.15625 1.0625,-3.375 1.070312,-1.21875 2.953125,-1.21875 z"
       style="font-size:15.99999905px;fill:#ffffff;stroke-width:0.75"
       id="path157"
       inkscape:connector-curvature="0" />
    <path
       d="m 51.812498,301.10165 h 1.523437 l 2.734375,7.34375 2.734375,-7.34375 h 1.523438 l -3.28125,8.75 h -1.953125 z"
       style="font-size:15.99999905px;fill:#ffffff;stroke-width:0.75"
       id="path159"
       inkscape:connector-curvature="0" />
    <path
       d="m 62.312496,301.10165 h 1.4375 v 8.75 h -1.4375 z m 0,-3.40625 h 1.4375 v 1.82032 h -1.4375 z"
       style="font-size:15.99999905px;fill:#ffffff;stroke-width:0.75"
       id="path161"
       inkscape:connector-curvature="0" />
    <path
       d="m 74.023433,304.5704 v 5.28125 h -1.4375 v -5.23437 q 0,-1.24219 -0.484375,-1.85938 -0.484375,-0.61718 -1.453125,-0.61718 -1.164062,0 -1.835937,0.74218 -0.671875,0.74219 -0.671875,2.02344 v 4.94531 h -1.445312 v -8.75 h 1.445312 v 1.35938 q 0.515625,-0.78906 1.210937,-1.17969 0.703125,-0.39062 1.617188,-0.39062 1.507812,0 2.28125,0.9375 0.773437,0.92968 0.773437,2.74218 z"
       style="font-size:15.99999905px;fill:#ffffff;stroke-width:0.75"
       id="path163"
       inkscape:connector-curvature="0" />
    <path
       d="m 82.664058,305.37509 q 0,-1.5625 -0.648437,-2.42187 -0.640625,-0.85938 -1.804688,-0.85938 -1.15625,0 -1.804687,0.85938 -0.640625,0.85937 -0.640625,2.42187 0,1.55469 0.640625,2.41406 0.648437,0.85938 1.804687,0.85938 1.164063,0 1.804688,-0.85938 0.648437,-0.85937 0.648437,-2.41406 z m 1.4375,3.39063 q 0,2.23437 -0.992187,3.32031 -0.992188,1.09375 -3.039063,1.09375 -0.757812,0 -1.429687,-0.11719 -0.671875,-0.10937 -1.304687,-0.34375 v -1.39844 q 0.632812,0.34375 1.249999,0.50782 0.617188,0.16406 1.257813,0.16406 1.414062,0 2.117187,-0.74219 0.703125,-0.73437 0.703125,-2.22656 v -0.71094 q -0.445312,0.77344 -1.140625,1.15625 -0.695312,0.38281 -1.664062,0.38281 -1.609375,0 -2.59375,-1.22656 -0.984375,-1.22656 -0.984375,-3.25 0,-2.03125 0.984375,-3.25781 0.984375,-1.22656 2.59375,-1.22656 0.96875,0 1.664062,0.38281 0.695313,0.38281 1.140625,1.15625 v -1.32813 h 1.4375 z"
       style="font-size:15.99999905px;fill:#ffffff;stroke-width:0.75"
       id="path165"
       inkscape:connector-curvature="0" />
    <path
       d="m 93.796867,299.48447 v 4.38281 h 1.984375 q 1.101562,0 1.703125,-0.57031 0.601562,-0.57032 0.601562,-1.625 0,-1.04688 -0.601562,-1.61719 -0.601563,-0.57031 -1.703125,-0.57031 z m -1.578125,-1.29688 h 3.5625 q 1.960937,0 2.960937,0.89063 1.007813,0.88281 1.007813,2.59375 0,1.72656 -1.007813,2.60937 -1,0.88281 -2.960937,0.88281 h -1.984375 v 4.6875 h -1.578125 z"
       style="font-size:15.99999905px;fill:#ffffff;stroke-width:0.75"
       id="path167"
       inkscape:connector-curvature="0" />
    <path
       d="m 101.87499,298.18759 h 7.375 v 1.32813 h -5.79687 v 3.45312 h 5.55468 v 1.32813 h -5.55468 v 4.22656 h 5.9375 v 1.32812 h -7.51563 z"
       style="font-size:15.99999905px;fill:#ffffff;stroke-width:0.75"
       id="path169"
       inkscape:connector-curvature="0" />
    <path
       d="m 116.73437,299.2579 q -1.71875,0 -2.73438,1.28125 -1.00781,1.28125 -1.00781,3.49219 0,2.20313 1.00781,3.48438 1.01563,1.28125 2.73438,1.28125 1.71875,0 2.71875,-1.28125 1.00781,-1.28125 1.00781,-3.48438 0,-2.21094 -1.00781,-3.49219 -1,-1.28125 -2.71875,-1.28125 z m 0,-1.28125 q 2.45312,0 3.92187,1.64844 1.46875,1.64063 1.46875,4.40625 0,2.75781 -1.46875,4.40625 -1.46875,1.64063 -3.92187,1.64063 -2.46094,0 -3.9375,-1.64063 -1.46875,-1.64062 -1.46875,-4.40625 0,-2.76562 1.46875,-4.40625 1.47656,-1.64844 3.9375,-1.64844 z"
       style="font-size:15.99999905px;fill:#ffffff;stroke-width:0.75"
       id="path171"
       inkscape:connector-curvature="0" />
    <path
       d="m 126.17187,299.48447 v 4.38281 h 1.98437 q 1.10156,0 1.70313,-0.57031 0.60156,-0.57032 0.60156,-1.625 0,-1.04688 -0.60156,-1.61719 -0.60157,-0.57031 -1.70313,-0.57031 z m -1.57813,-1.29688 h 3.5625 q 1.96094,0 2.96094,0.89063 1.00781,0.88281 1.00781,2.59375 0,1.72656 -1.00781,2.60937 -1,0.88281 -2.96094,0.88281 h -1.98437 v 4.6875 h -1.57813 z"
       style="font-size:15.99999905px;fill:#ffffff;stroke-width:0.75"
       id="path173"
       inkscape:connector-curvature="0" />
    <path
       d="m 134.24999,298.18759 h 1.57813 v 10.33594 h 5.67968 v 1.32812 h -7.25781 z"
       style="font-size:15.99999905px;fill:#ffffff;stroke-width:0.75"
       id="path175"
       inkscape:connector-curvature="0" />
    <path
       d="m 143.15624,298.18759 h 7.375 v 1.32813 h -5.79687 v 3.45312 h 5.55468 v 1.32813 h -5.55468 v 4.22656 h 5.9375 v 1.32812 h -7.51563 z"
       style="font-size:15.99999905px;fill:#ffffff;stroke-width:0.75"
       id="path177"
       inkscape:connector-curvature="0" />
  </g>
  <g
     aria-label="Giving HOPE"
     style="font-style:normal;font-weight:normal;font-size:30px;line-height:1.25;font-family:sans-serif;letter-spacing:0px;word-spacing:0px;fill:#ffffff;fill-opacity:1;stroke:none;stroke-width:0.75"
     id="text86-3"
     transform="translate(-0.704132,-0.432937)">
    <path
       d="m 190.2625,286.03305 v -3.13281 h -2.57813 v -1.29688 h 4.14063 v 5.00782 q -0.91407,0.64843 -2.01563,0.98437 -1.10156,0.32813 -2.35156,0.32813 -2.73438,0 -4.28125,-1.59375 -1.53906,-1.60157 -1.53906,-4.45313 0,-2.85937 1.53906,-4.45312 1.54687,-1.60157 4.28125,-1.60157 1.14062,0 2.16406,0.28125 1.03125,0.28125 1.89844,0.82813 v 1.67969 q -0.875,-0.74219 -1.85938,-1.11719 -0.98437,-0.375 -2.07031,-0.375 -2.14062,0 -3.21875,1.19531 -1.07031,1.19531 -1.07031,3.5625 0,2.35938 1.07031,3.55469 1.07813,1.19531 3.21875,1.19531 0.83594,0 1.49219,-0.14062 0.65625,-0.14844 1.17969,-0.45313 z"
       style="font-size:15.99999905px;fill:#ffffff;stroke-width:0.75"
       id="path226"
       inkscape:connector-curvature="0" />
    <path
       d="m 194.65312,278.94711 h 1.4375 v 8.75 h -1.4375 z m 0,-3.40625 h 1.4375 v 1.82032 h -1.4375 z"
       style="font-size:15.99999905px;fill:#ffffff;stroke-width:0.75"
       id="path228"
       inkscape:connector-curvature="0" />
    <path
       d="m 198.05937,278.94711 h 1.52344 l 2.73437,7.34375 2.73438,-7.34375 h 1.52343 l -3.28125,8.75 h -1.95312 z"
       style="font-size:15.99999905px;fill:#ffffff;stroke-width:0.75"
       id="path230"
       inkscape:connector-curvature="0" />
    <path
       d="m 208.55937,278.94711 h 1.4375 v 8.75 h -1.4375 z m 0,-3.40625 h 1.4375 v 1.82032 h -1.4375 z"
       style="font-size:15.99999905px;fill:#ffffff;stroke-width:0.75"
       id="path232"
       inkscape:connector-curvature="0" />
    <path
       d="m 220.27031,282.41586 v 5.28125 h -1.4375 v -5.23437 q 0,-1.24219 -0.48438,-1.85938 -0.48437,-0.61718 -1.45312,-0.61718 -1.16407,0 -1.83594,0.74218 -0.67188,0.74219 -0.67188,2.02344 v 4.94531 h -1.44531 v -8.75 h 1.44531 v 1.35938 q 0.51563,-0.78906 1.21094,-1.17969 0.70313,-0.39062 1.61719,-0.39062 1.50781,0 2.28125,0.9375 0.77344,0.92968 0.77344,2.74218 z"
       style="font-size:15.99999905px;fill:#ffffff;stroke-width:0.75"
       id="path234"
       inkscape:connector-curvature="0" />
    <path
       d="m 228.91093,283.22055 q 0,-1.5625 -0.64844,-2.42187 -0.64062,-0.85938 -1.80468,-0.85938 -1.15625,0 -1.80469,0.85938 -0.64063,0.85937 -0.64063,2.42187 0,1.55469 0.64063,2.41406 0.64844,0.85938 1.80469,0.85938 1.16406,0 1.80468,-0.85938 0.64844,-0.85937 0.64844,-2.41406 z m 1.4375,3.39063 q 0,2.23437 -0.99219,3.32031 -0.99218,1.09375 -3.03906,1.09375 -0.75781,0 -1.42969,-0.11719 -0.67187,-0.10937 -1.30468,-0.34375 v -1.39844 q 0.63281,0.34375 1.25,0.50782 0.61718,0.16406 1.25781,0.16406 1.41406,0 2.11719,-0.74219 0.70312,-0.73437 0.70312,-2.22656 v -0.71094 q -0.44531,0.77344 -1.14062,1.15625 -0.69532,0.38281 -1.66407,0.38281 -1.60937,0 -2.59375,-1.22656 -0.98437,-1.22656 -0.98437,-3.25 0,-2.03125 0.98437,-3.25781 0.98438,-1.22656 2.59375,-1.22656 0.96875,0 1.66407,0.38281 0.69531,0.38281 1.14062,1.15625 v -1.32813 h 1.4375 z"
       style="font-size:15.99999905px;fill:#ffffff;stroke-width:0.75"
       id="path236"
       inkscape:connector-curvature="0" />
    <path
       d="m 238.46562,276.03305 h 1.57812 v 4.78125 h 5.73438 v -4.78125 h 1.57812 v 11.66406 h -1.57812 v -5.55468 h -5.73438 v 5.55468 h -1.57812 z"
       style="font-size:15.99999905px;fill:#ffffff;stroke-width:0.75"
       id="path238"
       inkscape:connector-curvature="0" />
    <path
       d="m 255.23124,277.10336 q -1.71875,0 -2.73438,1.28125 -1.00781,1.28125 -1.00781,3.49219 0,2.20313 1.00781,3.48438 1.01563,1.28125 2.73438,1.28125 1.71875,0 2.71875,-1.28125 1.00781,-1.28125 1.00781,-3.48438 0,-2.21094 -1.00781,-3.49219 -1,-1.28125 -2.71875,-1.28125 z m 0,-1.28125 q 2.45312,0 3.92187,1.64844 1.46875,1.64063 1.46875,4.40625 0,2.75781 -1.46875,4.40625 -1.46875,1.64063 -3.92187,1.64063 -2.46094,0 -3.9375,-1.64063 -1.46875,-1.64062 -1.46875,-4.40625 0,-2.76562 1.46875,-4.40625 1.47656,-1.64844 3.9375,-1.64844 z"
       style="font-size:15.99999905px;fill:#ffffff;stroke-width:0.75"
       id="path240"
       inkscape:connector-curvature="0" />
    <path
       d="m 264.66874,277.32993 v 4.38281 h 1.98437 q 1.10157,0 1.70313,-0.57031 0.60156,-0.57032 0.60156,-1.625 0,-1.04688 -0.60156,-1.61719 -0.60156,-0.57031 -1.70313,-0.57031 z m -1.57813,-1.29688 h 3.5625 q 1.96094,0 2.96094,0.89063 1.00781,0.88281 1.00781,2.59375 0,1.72656 -1.00781,2.60937 -1,0.88281 -2.96094,0.88281 h -1.98437 v 4.6875 h -1.57813 z"
       style="font-size:15.99999905px;fill:#ffffff;stroke-width:0.75"
       id="path242"
       inkscape:connector-curvature="0" />
    <path
       d="m 272.74686,276.03305 h 7.375 v 1.32813 h -5.79687 v 3.45312 h 5.55469 v 1.32813 h -5.55469 v 4.22656 h 5.9375 v 1.32812 h -7.51563 z"
       style="font-size:15.99999905px;fill:#ffffff;stroke-width:0.75"
       id="path244"
       inkscape:connector-curvature="0" />
  </g>
  <g
     aria-label="Teaching TRUTH"
     style="font-style:normal;font-weight:normal;font-size:30px;line-height:1.25;font-family:sans-serif;letter-spacing:0px;word-spacing:0px;fill:#ffffff;fill-opacity:1;stroke:none;stroke-width:0.75"
     id="text86-5"
     transform="translate(-0.704132,-0.432937)">
    <path
       d="m 182.63681,297.8504 h 9.86719 v 1.32813 h -4.14063 v 10.33594 h -1.58593 v -10.33594 h -4.14063 z"
       style="font-size:15.99999905px;fill:#ffffff;stroke-width:0.75"
       id="path199"
       inkscape:connector-curvature="0" />
    <path
       d="m 198.73837,304.78009 v 0.70313 H 192.129 q 0.0937,1.48437 0.89062,2.26562 0.80469,0.77344 2.23438,0.77344 0.82812,0 1.60156,-0.20313 0.78125,-0.20312 1.54687,-0.60937 v 1.35937 q -0.77343,0.32813 -1.58593,0.5 -0.8125,0.17188 -1.64844,0.17188 -2.09375,0 -3.32031,-1.21875 -1.21875,-1.21875 -1.21875,-3.29688 0,-2.14843 1.15625,-3.40625 1.16406,-1.26562 3.13281,-1.26562 1.76562,0 2.78906,1.14062 1.03125,1.13282 1.03125,3.08594 z m -1.4375,-0.42187 q -0.0156,-1.17969 -0.66406,-1.88282 -0.64063,-0.70312 -1.70313,-0.70312 -1.20312,0 -1.92968,0.67969 -0.71875,0.67968 -0.82813,1.91406 z"
       style="font-size:15.99999905px;fill:#ffffff;stroke-width:0.75"
       id="path201"
       inkscape:connector-curvature="0" />
    <path
       d="m 205.07431,305.11603 q -1.74219,0 -2.41406,0.39844 -0.67188,0.39843 -0.67188,1.35937 0,0.76563 0.5,1.21875 0.50781,0.44531 1.375,0.44531 1.19531,0 1.91406,-0.84375 0.72657,-0.85156 0.72657,-2.25781 v -0.32031 z m 2.86719,-0.59375 v 4.99219 h -1.4375 v -1.32813 q -0.49219,0.79688 -1.22657,1.17969 -0.73437,0.375 -1.79687,0.375 -1.34375,0 -2.14063,-0.75 -0.78906,-0.75781 -0.78906,-2.02344 0,-1.47656 0.98438,-2.22656 0.99218,-0.75 2.95312,-0.75 h 2.01563 v -0.14063 q 0,-0.99218 -0.65625,-1.53125 -0.64844,-0.54687 -1.82813,-0.54687 -0.75,0 -1.46094,0.17969 -0.71093,0.17968 -1.36718,0.53906 v -1.32813 q 0.78906,-0.30468 1.53125,-0.45312 0.74218,-0.15625 1.44531,-0.15625 1.89844,0 2.83594,0.98437 0.9375,0.98438 0.9375,2.98438 z"
       style="font-size:15.99999905px;fill:#ffffff;stroke-width:0.75"
       id="path203"
       inkscape:connector-curvature="0" />
    <path
       d="m 217.20712,301.1004 v 1.34375 q -0.60937,-0.33593 -1.22656,-0.5 -0.60938,-0.17187 -1.23438,-0.17187 -1.39843,0 -2.17187,0.89062 -0.77344,0.88282 -0.77344,2.48438 0,1.60156 0.77344,2.49219 0.77344,0.88281 2.17187,0.88281 0.625,0 1.23438,-0.16406 0.61719,-0.17188 1.22656,-0.50782 v 1.32813 q -0.60156,0.28125 -1.25,0.42187 -0.64062,0.14063 -1.36719,0.14063 -1.97656,0 -3.14062,-1.24219 -1.16406,-1.24219 -1.16406,-3.35156 0,-2.14063 1.17187,-3.36719 1.17969,-1.22656 3.22656,-1.22656 0.66407,0 1.29688,0.14062 0.63281,0.13282 1.22656,0.40625 z"
       style="font-size:15.99999905px;fill:#ffffff;stroke-width:0.75"
       id="path205"
       inkscape:connector-curvature="0" />
    <path
       d="m 226.99618,304.23322 v 5.28125 h -1.4375 v -5.23438 q 0,-1.24219 -0.48437,-1.85937 -0.48438,-0.61719 -1.45313,-0.61719 -1.16406,0 -1.83594,0.74219 -0.67187,0.74218 -0.67187,2.02343 v 4.94532 h -1.44531 v -12.15625 h 1.44531 v 4.76562 q 0.51562,-0.78906 1.21094,-1.17969 0.70312,-0.39062 1.61718,-0.39062 1.50782,0 2.28125,0.9375 0.77344,0.92969 0.77344,2.74219 z"
       style="font-size:15.99999905px;fill:#ffffff;stroke-width:0.75"
       id="path207"
       inkscape:connector-curvature="0" />
    <path
       d="m 229.87899,300.76447 h 1.4375 v 8.75 h -1.4375 z m 0,-3.40625 h 1.4375 v 1.82031 h -1.4375 z"
       style="font-size:15.99999905px;fill:#ffffff;stroke-width:0.75"
       id="path209"
       inkscape:connector-curvature="0" />
    <path
       d="m 241.58993,304.23322 v 5.28125 h -1.4375 v -5.23438 q 0,-1.24219 -0.48437,-1.85937 -0.48438,-0.61719 -1.45313,-0.61719 -1.16406,0 -1.83594,0.74219 -0.67187,0.74218 -0.67187,2.02343 v 4.94532 h -1.44531 v -8.75 h 1.44531 v 1.35937 q 0.51562,-0.78906 1.21094,-1.17969 0.70312,-0.39062 1.61718,-0.39062 1.50782,0 2.28125,0.9375 0.77344,0.92969 0.77344,2.74219 z"
       style="font-size:15.99999905px;fill:#ffffff;stroke-width:0.75"
       id="path211"
       inkscape:connector-curvature="0" />
    <path
       d="m 250.23055,305.0379 q 0,-1.5625 -0.64844,-2.42187 -0.64062,-0.85938 -1.80468,-0.85938 -1.15625,0 -1.80469,0.85938 -0.64062,0.85937 -0.64062,2.42187 0,1.55469 0.64062,2.41407 0.64844,0.85937 1.80469,0.85937 1.16406,0 1.80468,-0.85937 0.64844,-0.85938 0.64844,-2.41407 z m 1.4375,3.39063 q 0,2.23437 -0.99219,3.32031 -0.99218,1.09375 -3.03906,1.09375 -0.75781,0 -1.42969,-0.11719 -0.67187,-0.10937 -1.30468,-0.34375 v -1.39843 q 0.63281,0.34375 1.25,0.50781 0.61718,0.16406 1.25781,0.16406 1.41406,0 2.11719,-0.74219 0.70312,-0.73437 0.70312,-2.22656 v -0.71094 q -0.44531,0.77344 -1.14062,1.15625 -0.69532,0.38282 -1.66407,0.38282 -1.60937,0 -2.59374,-1.22657 -0.98438,-1.22656 -0.98438,-3.25 0,-2.03125 0.98438,-3.25781 0.98437,-1.22656 2.59374,-1.22656 0.96875,0 1.66407,0.38281 0.69531,0.38281 1.14062,1.15625 v -1.32812 h 1.4375 z"
       style="font-size:15.99999905px;fill:#ffffff;stroke-width:0.75"
       id="path213"
       inkscape:connector-curvature="0" />
    <path
       d="m 258.16805,297.8504 h 9.86719 v 1.32813 h -4.14063 v 10.33594 h -1.58593 v -10.33594 h -4.14063 z"
       style="font-size:15.99999905px;fill:#ffffff;stroke-width:0.75"
       id="path215"
       inkscape:connector-curvature="0" />
    <path
       d="m 275.09774,304.04572 q 0.50781,0.17187 0.98437,0.73437 0.48438,0.5625 0.96875,1.54688 l 1.60157,3.1875 h -1.69532 l -1.49218,-2.99219 q -0.57813,-1.17188 -1.125,-1.55469 -0.53907,-0.38281 -1.47657,-0.38281 h -1.71875 v 4.92969 h -1.57812 V 297.8504 h 3.5625 q 2,0 2.98437,0.83594 0.98438,0.83594 0.98438,2.52344 0,1.10156 -0.51563,1.82812 -0.50781,0.72657 -1.48437,1.00782 z m -3.95313,-4.89844 v 4.14062 h 1.98438 q 1.14062,0 1.71875,-0.52343 0.58594,-0.53125 0.58594,-1.55469 0,-1.02344 -0.58594,-1.53906 -0.57813,-0.52344 -1.71875,-0.52344 z"
       style="font-size:15.99999905px;fill:#ffffff;stroke-width:0.75"
       id="path217"
       inkscape:connector-curvature="0" />
    <path
       d="m 280.5118,297.8504 h 1.58594 v 7.08594 q 0,1.875 0.67969,2.70313 0.67968,0.82031 2.20312,0.82031 1.51563,0 2.19531,-0.82031 0.67969,-0.82813 0.67969,-2.70313 v -7.08594 h 1.58594 v 7.28125 q 0,2.28125 -1.13281,3.44532 -1.125,1.16406 -3.32813,1.16406 -2.21094,0 -3.34375,-1.16406 -1.125,-1.16407 -1.125,-3.44532 z"
       style="font-size:15.99999905px;fill:#ffffff;stroke-width:0.75"
       id="path219"
       inkscape:connector-curvature="0" />
    <path
       d="m 290.79305,297.8504 h 9.86719 v 1.32813 h -4.14063 v 10.33594 h -1.58593 v -10.33594 h -4.14063 z"
       style="font-size:15.99999905px;fill:#ffffff;stroke-width:0.75"
       id="path221"
       inkscape:connector-curvature="0" />
    <path
       d="m 302.19149,297.8504 h 1.57812 v 4.78125 h 5.73438 v -4.78125 h 1.57812 v 11.66407 h -1.57812 v -5.55469 h -5.73438 v 5.55469 h -1.57812 z"
       style="font-size:15.99999905px;fill:#ffffff;stroke-width:0.75"
       id="path223"
       inkscape:connector-curvature="0" />
  </g>
  <rect
     style="fill:#ebba34;fill-opacity:1;stroke-width:0.79691947"
     id="rect48-6-9"
     width="19.480991"
     height="16.429752"
     x="156.04587"
     y="273.44269" />
</svg>
