<?xml version="1.0" encoding="UTF-8"?>
<svg width="423pt" height="284pt" version="1.1" viewBox="0 0 423 284" 
   xmlns="http://www.w3.org/2000/svg" 
   xmlns:cc="http://creativecommons.org/ns#" 
   xmlns:dc="http://purl.org/dc/elements/1.1/" 
   xmlns:rdf="http://www.w3.org/1999/02/22-rdf-syntax-ns#">
   <metadata>
      <rdf:RDF>
         <cc:Work rdf:about="">
            <dc:format>image/svg+xml</dc:format>
            <dc:type rdf:resource="http://purl.org/dc/dcmitype/StillImage"/>
            <dc:title/>
         </cc:Work>
      </rdf:RDF>
   </metadata>
   <g fill="#ebba34">
      <path d="m206.6 11.37c0.17-0.02 0.53-0.05 0.7-0.07 2.67 8.4 5.76 17 11.63 23.76 2.72 3.2 6.82 5.37 11.11 4.88 8.45-0.74 15.74-5.71 22.37-10.62-0.79 11.94-1.06 24.75 4.64 35.63 6.24 10.42 18.81 14.01 29.94 16.49-4.95 10.43-8.31 21.89-8.11 33.51 0.21 13.97 8.36 27.21 20.18 34.47-6.94 0.24-13.88 0.04-20.82 0.1-1.9-19.68-6.8-39.24-15.82-56.9-7.86-15.2-19.1-29.56-34.77-37.22-12.12-6.07-26.88-6.47-39.26-0.92-15.07 6.56-26.27 19.56-34.3 33.56-10.7 18.91-16.36 40.37-18.32 61.92-6.19 0.23-12.4 0.1-18.6 0.11 8.43-4.31 14.23-12.67 15.79-21.96 2.75-15.79-0.22-32.2-6.36-46.87 6.7 1.17 14.12 1.25 20.05-2.54 4.69-2.85 7.13-8.08 8.72-13.12 3.37-11.1 3.9-22.82 3.65-34.34 6.29 4.81 12.86 10 20.89 11.35 3.75 0.74 7.59-0.81 10.11-3.6 7.47-7.87 12.21-17.81 16.58-27.62z"/>
      <path d="m197.49 86.85c6.34-0.01 12.67 0 19.01 0 0.07 13.48-0.14 26.96 0.1 40.43 12.08-0.09 24.16-0.08 36.24 0 0.07 9-0.02 18.01 0.04 27.02-12.13 0.12-24.26-0.01-36.39 0.06 0.02 42.02 0 84.04 0.02 126.06-6.34 0.01-12.68 0-19.02 0.01-0.02-42.02-0.01-84.05 0-126.07-12.12-0.06-24.23 0.05-36.35-0.06 0.04-9-0.02-18.01 0.04-27.02 12.07-0.1 24.15-0.06 36.22-0.01 0.19-13.47 0.02-26.95 0.09-40.42z"/>
   </g>
   <flowRoot fill="#000000" font-family="sans-serif" font-size="30px" letter-spacing="0px" stroke-width=".75" word-spacing="0px" style="line-height:1.25" xml:space="preserve">
      <flowRegion>
         <rect x="88.006" y="166.57" width="272.79" height="80.78" stroke-width=".5625"/>
      </flowRegion>
      <flowPara/>
   </flowRoot>
   <g fill="#fff" stroke-width=".75" aria-label="NEW  HOPE">
      <path d="m40.348 163.27h8.5l20.688 39.031v-39.031h6.125v46.656h-8.5l-20.688-39.031v39.031h-6.125z"/>
      <path d="m88.223 163.27h29.5v5.3125h-23.188v13.812h22.219v5.3125h-22.219v16.906h23.75v5.3125h-30.062z"/>
      <path d="m124.57 163.27h6.375l9.8125 39.438 9.7812-39.438h7.0938l9.8125 39.438 9.7812-39.438h6.4062l-11.719 46.656h-7.9375l-9.8438-40.5-9.9375 40.5h-7.9375z"/>
      <path d="m232.72 163.27h6.3125v19.125h22.938v-19.125h6.3125v46.656h-6.3125v-22.219h-22.938v22.219h-6.3125z"/>
      <path d="m299.79 167.56q-6.875 0-10.938 5.125-4.0312 5.125-4.0312 13.969 0 8.8125 4.0312 13.938 4.0625 5.125 10.938 5.125t10.875-5.125q4.0312-5.125 4.0312-13.938 0-8.8438-4.0312-13.969-4-5.125-10.875-5.125zm0-5.125q9.8125 0 15.688 6.5938 5.875 6.5625 5.875 17.625 0 11.031-5.875 17.625-5.875 6.5625-15.688 6.5625-9.8438 0-15.75-6.5625-5.875-6.5625-5.875-17.625t5.875-17.625q5.9062-6.5938 15.75-6.5938z"/>
      <path d="m337.54 168.46v17.531h7.9375q4.4062 0 6.8125-2.2812t2.4062-6.5q0-4.1875-2.4062-6.4688t-6.8125-2.2812zm-6.3125-5.1875h14.25q7.8438 0 11.844 3.5625 4.0312 3.5312 4.0312 10.375 0 6.9062-4.0312 10.438-4 3.5312-11.844 3.5312h-7.9375v18.75h-6.3125z"/>
      <path d="m369.85 163.27h29.5v5.3125h-23.188v13.812h22.219v5.3125h-22.219v16.906h23.75v5.3125h-30.062z"/>
   </g>
</svg>
